<svg width="22" height="22" viewBox="0 0 22 22" fill="none" xmlns="http://www.w3.org/2000/svg">
<path d="M11 20.9512C16.523 20.9512 21 16.4742 21 10.9512C21 5.42817 16.523 0.951172 11 0.951172C5.477 0.951172 1 5.42817 1 10.9512C1 16.4742 5.477 20.9512 11 20.9512Z" stroke="white" stroke-width="1.5" stroke-linecap="round" stroke-linejoin="round"/>
<path d="M11.1246 11.1814C11.0419 11.1718 10.9581 11.1718 10.8754 11.1814C9.99461 11.1542 9.15985 10.8146 8.54745 10.2342C7.93506 9.65379 7.59297 8.87812 7.59347 8.07102C7.59347 6.3494 9.10979 4.95118 11 4.95118C11.8926 4.94976 12.75 5.26964 13.3875 5.84186C14.025 6.41407 14.3914 7.19279 14.4077 8.01013C14.4241 8.82747 14.089 9.61796 13.4749 10.2112C12.8608 10.8044 12.0167 11.1528 11.1246 11.1814ZM18.5 17.4512C17 19.4433 14.4255 20.7485 10.8754 20.7485C7.32529 20.7485 5 19.4433 3.5 17.4512C3.60386 16.5571 4.727 15.6899 5.83828 15.0051C8.68398 13.2739 13.3368 13.2739 16.1617 15.0051C17.273 15.6899 18.3961 16.5571 18.5 17.4512Z" stroke="white" stroke-width="1.5" stroke-linecap="round" stroke-linejoin="round"/>
</svg>
